# xmcd
#
# Track frame offsets: 
#        150
#        14277
#        29845
#        54025
#        71367
#        89097
#        106425
#        125277
#        143385
#        158410
#        178870
#        195450
#        216325
#        234767
#        251920
#        268332
#
# Disc length: 3727 seconds
#
# Revision: 12
# Processed by: cddbd v1.5.2PL0 Copyright (c) Steve Scherf et al.
# Submitted via: ExactAudioCopy v0.99pb4
#
DISCID=dc0e8d10
DTITLE=Wolfgang Petry - Hey Sie, sind Sie noch dran
DYEAR=1999
DGENRE=Pop-Folk
TTITLE0=Hallelujah mach 's gut
TTITLE1=Hey Sie, sind Sie noch dran
TTITLE2=Dann schliess' ich meine Augen
TTITLE3=Ich brauch' 'ne Dosis Liebe
TTITLE4=Der Teufel kam um Mitternacht
TTITLE5=Abrakadabra
TTITLE6=Linda and Joey
TTITLE7=Liebe die du nie begreifst
TTITLE8=Mit offenen Armen
TTITLE9=Finale in Moll
TTITLE10=Der Farbfilm in mir
TTITLE11=Willkommen auf der Sonnenbank
TTITLE12=Kaltes Glück
TTITLE13=Baby
TTITLE14=Unser Film ist aus
TTITLE15=Liebe die du nie begreifst (Reprise)
EXTD=
EXTT0=
EXTT1=
EXTT2=
EXTT3=
EXTT4=
EXTT5=
EXTT6=
EXTT7=
EXTT8=
EXTT9=
EXTT10=
EXTT11=
EXTT12=
EXTT13=
EXTT14=
EXTT15=
PLAYORDER=
